/* XPM */
static char *BABA[] = {
/* columns rows colors chars-per-pixel */
"75 75 114 2 ",
"   c black",
".  c #010101",
"X  c #040404",
"o  c #060606",
"O  c #070707",
"+  c #090909",
"@  c #0B0B0B",
"#  c #0C0C0C",
"$  c #111111",
"%  c #131313",
"&  c #151515",
"*  c #161616",
"=  c gray10",
"-  c #1E1E1E",
";  c #202020",
":  c gray13",
">  c gray14",
",  c #252525",
"<  c gray16",
"1  c #2D2D2D",
"2  c gray19",
"3  c #353535",
"4  c #393939",
"5  c #3C3C3C",
"6  c #3F3F3F",
"7  c #414141",
"8  c #434343",
"9  c #444444",
"0  c #4B4B4B",
"q  c #505050",
"w  c #555555",
"e  c gray36",
"r  c #5D5D5D",
"t  c gray37",
"y  c gray39",
"u  c #686868",
"i  c DimGray",
"p  c gray43",
"a  c gray45",
"s  c #747474",
"d  c gray46",
"f  c gray47",
"g  c #7B7B7B",
"h  c gray50",
"j  c #808080",
"k  c #818181",
"l  c #868686",
"z  c gray53",
"x  c #888888",
"c  c gray55",
"v  c #8E8E8E",
"b  c #909090",
"n  c gray57",
"m  c #929292",
"M  c #979797",
"N  c gray62",
"B  c #9F9F9F",
"V  c #A5A5A5",
"C  c gray65",
"Z  c #A9A9A9",
"A  c #AAAAAA",
"S  c gray67",
"D  c #AEAEAE",
"F  c #B1B1B1",
"G  c #B4B4B4",
"H  c gray71",
"J  c gray72",
"K  c #B9B9B9",
"L  c #BBBBBB",
"P  c gray74",
"I  c gray",
"U  c #C1C1C1",
"Y  c #C3C3C3",
"T  c gray77",
"R  c #C6C6C6",
"E  c gray78",
"W  c #CBCBCB",
"Q  c gray80",
"!  c #CDCDCD",
"~  c #D0D0D0",
"^  c #D2D2D2",
"/  c LightGray",
"(  c gray83",
")  c gray84",
"_  c gray85",
"`  c gray86",
"'  c gainsboro",
"]  c #DDDDDD",
"[  c #E1E1E1",
"{  c #E2E2E2",
"}  c #E6E6E6",
"|  c #E7E7E7",
" . c #E9E9E9",
".. c #EAEAEA",
"X. c gray92",
"o. c #ECECEC",
"O. c gray93",
"+. c #EEEEEE",
"@. c #F1F1F1",
"#. c gray95",
"$. c #F3F3F3",
"%. c #F4F4F4",
"&. c gray96",
"*. c #F6F6F6",
"=. c gray97",
"-. c #F8F8F8",
";. c #F9F9F9",
":. c gray98",
">. c #FBFBFB",
",. c gray99",
"<. c #FDFDFD",
"1. c #FEFEFE",
"2. c white",
"3. c None",
/* pixels */
"3.3.3.3.3.3.3.3.3.3.3.3.3.3.3.3.3.3.3.3.3.3.3.3.3.3.3.3.3.3.3.3.3.3.3.3.3.3.3.3.3.3.3.3.3.3.3.3.3.3.3.3.3.3.3.3.3.3.3.3.3.3.3.3.3.3.3.3.3.3.3.3.3.3.3.",
"3.3.3.3.3.3.3.3.3.3.3.3.3.3.3.3.3.3.3.3.3.3.3.3.3.3.3.3.3.3.3.3.3.3.3.3.3.3.3.3.3.3.3.3.3.3.3.3.3.3.3.3.3.3.3.3.3.3.3.3.3.3.3.3.3.3.3.3.3.3.3.3.3.3.3.",
"3.3.3.3.3.3.3.3.3.3.3.3.3.3.3.3.3.3.3.3.3.3.3.3.3.3.3.3.3.3.3.3.3.3.3.3.3.3.3.3.3.3.3.3.3.3.3.3.3.3.3.3.3.3.3.3.3.3.3.3.3.3.3.3.3.3.3.3.3.3.3.3.3.3.3.",
"3.3.3.3.3.3.3.3.3.3.3.3.3.3.3.3.3.3.3.3.3.3.3.3.3.3.3.3.3.3.3.3.3.3.3.3.3.3.3.3.3.3.3.3.3.3.3.3.3.3.3.3.3.3.3.3.3.3.3.3.3.3.3.3.3.3.3.3.3.3.3.3.3.3.3.",
"3.3.3.3.3.3.3.3.3.3.3.3.3.3.3.3.3.3.3.3.3.3.3.3.3.3.3.3.3.3.3.3.3.3.3.3.3.3.3.3.3.3.3.3.3.3.3.3.3.3.3.3.3.3.3.3.3.3.3.3.3.3.3.3.3.3.3.3.3.3.3.3.3.3.3.",
"3.3.3.3.3.3.3.3.3.3.3.3.3.3.3.3.3.3.3.3.3.3.3.3.3.3.3.3.3.3.3.3.3.3.3.3.3.3.3.3.3.3.3.3.3.3.3.3.3.3.3.3.3.3.3.3.3.3.3.3.3.3.3.3.3.3.3.3.3.3.3.3.3.3.3.",
"3.3.3.3.3.3.3.3.3.3.3.3.3.3.3.3.3.3.3.3.3.3.3.3.3.3.3.3.3.3.3.3.3.3.3.3.3.3.3.3.3.3.3.3.3.3.3.3.3.3.3.3.3.3.3.3.3.3.3.3.3.3.3.3.3.3.3.3.3.3.3.3.3.3.3.",
"3.3.3.3.3.3.3.3.3.3.3.3.3.3.3.3.3.3.3.3.3.3.3.3.3.3.3.3.3.3.3.3.3.3.3.3.3.3.3.3.3.3.3.3.3.3.3.3.3.3.3.3.3.3.3.3.3.3.3.3.3.3.3.3.3.3.3.3.3.3.3.3.3.3.3.",
"3.3.3.3.3.3.3.3.3.3.3.3.3.3.3.3.3.3.3.3.3.3.3.3.3.3.3.3.3.3.3.3.3.3.3.3.3.3.3.3.3.3.3.3.3.3.3.3.3.3.3.3.3.3.3.3.3.3.3.3.3.3.3.3.3.3.3.3.3.3.3.3.3.3.3.",
"3.3.3.3.3.3.3.3.3.3.3.3.3.3.3.3.3.3.3.3.3.3.3.3.3.3.3.3.3.3.3.3.3.3.3.3.3.3.3.3.3.3.3.3.3.3.3.3.2.2.2.2.3.3.3.3.3.3.3.3.3.3.3.3.3.3.3.3.3.3.3.3.3.3.3.",
"3.3.3.3.3.3.3.3.3.3.3.3.3.3.3.3.3.3.3.3.3.3.3.3.3.3.3.3.3.3.3.3.3.3.3.3.3.3.3.3.3.3.3.3.3.3.3.2.2.2.2.2.2.3.3.3.3.3.3.3.3.3.3.3.3.3.3.3.3.3.3.3.3.3.3.",
"3.3.3.3.3.3.3.3.3.3.3.3.3.3.3.3.3.3.3.3.3.3.3.3.3.3.3.3.3.3.3.3.3.3.3.3.3.3.3.3.3.3.3.3.3.3.2.2.2.2.2.2.3.3.3.3.3.3.3.3.3.3.3.3.3.3.3.3.3.3.3.3.3.3.3.",
"3.3.3.3.3.3.3.3.3.3.3.3.3.3.3.3.3.3.3.3.3.3.3.3.3.3.3.3.3.2.2.2.2.3.3.3.3.3.3.3.3.3.3.3.3.3.2.2.2.2.2.2.3.3.3.3.3.3.3.3.3.3.3.3.3.3.3.3.3.3.3.3.3.3.3.",
"3.3.3.3.3.3.3.3.3.3.3.3.3.3.3.3.3.3.3.3.3.3.3.3.3.3.3.3.2.2.2.2.2.2.3.3.3.3.3.3.3.3.3.3.3.3.2.2.2.2.2.2.2.3.3.3.3.3.3.3.3.3.3.3.3.3.3.3.3.3.3.3.3.3.3.",
"3.3.3.3.3.3.3.3.3.3.3.3.3.3.3.3.3.3.3.3.3.3.3.3.3.3.3.3.2.2.2.2.2.2.2.3.3.3.3.3.3.3.3.3.3.3.2.2.2.2.2.2.2.2.3.3.3.3.3.3.3.3.3.3.3.3.3.3.3.3.3.3.3.3.3.",
"3.3.3.3.3.3.3.3.3.3.3.3.3.3.3.3.3.3.3.3.3.3.3.3.3.3.3.3.2.2.2.2.2.2.2.2.3.3.3.3.3.3.3.3.3.3.2.2.2.2.2.2.2.2.2.3.3.3.3.3.3.3.3.3.3.3.3.3.3.3.3.3.3.3.3.",
"3.3.3.3.3.3.3.3.3.3.3.3.3.3.3.3.3.3.3.3.3.3.3.3.3.3.3.3.2.2.2.2.2.2.2.2.2.3.3.3.3.3.3.3.3.3.2.2.2.2.2.2.2.2.2.2.3.3.3.3.3.3.3.3.3.3.3.3.3.3.3.3.3.3.3.",
"3.3.3.3.3.3.3.3.3.3.3.3.3.3.3.3.3.3.3.3.3.3.3.3.3.3.3.3.2.2.2.2.2.2.2.2.2.2.3.3.3.3.3.3.3.3.2.2.2.2.2.2.2.2.2.2.3.3.3.3.3.3.3.3.3.3.3.3.3.3.3.3.3.3.3.",
"3.3.3.3.3.3.3.3.3.3.3.3.3.3.3.3.3.3.3.3.3.3.3.3.3.3.3.3.2.2.2.2.2.2.2.2.2.2.3.3.3.3.3.3.3.3.2.2.2.2.2.2.2.2.2.2.2.3.3.3.3.3.3.3.3.3.3.3.3.3.3.3.3.3.3.",
"3.3.3.3.3.3.3.3.3.3.3.3.3.3.3.3.3.3.3.3.3.3.3.3.3.3.3.3.3.2.2.2.2.2.2.2.2.3.3.3.3.3.3.3.3.3.3.2.2.2.2.2.2.2.2.2.2.3.3.3.3.3.3.3.3.3.3.3.3.3.3.3.3.3.3.",
"3.3.3.3.3.3.3.3.3.3.3.3.3.3.3.3.3.3.3.3.3.3.3.3.3.3.3.3.2.2.2.2.2.2.2.2.2.2.3.3.3.3.3.3.3.3.2.2.2.2.2.2.2.2.2.2.2.3.3.3.3.3.3.3.3.3.3.3.3.3.3.3.3.3.3.",
"3.3.3.3.3.3.3.3.3.3.3.3.3.3.3.3.3.3.3.3.3.3.3.3.3.3.3.2.2.2.2.2.2.2.2.2.2.2.2.3.3.3.3.3.3.2.2.2.2.2.2.2.2.2.2.2.2.3.3.3.3.3.3.3.3.3.3.3.3.3.3.3.3.3.3.",
"3.3.3.3.3.3.3.3.3.3.3.3.3.3.3.3.2.2.2.2.2.2.2.2.2.3.2.2.2.2.2.2.2.2.2.2.2.2.2.2.3.2.2.3.2.2.2.2.2.2.2.2.2.2.2.2.2.2.3.2.2.2.3.3.3.3.3.3.3.3.3.3.3.3.3.",
"3.3.3.3.3.3.3.3.3.3.3.3.3.3.3.2.2.2.2.2.2.2.2.2.2.2.2.2.2.2.2.2.2.2.2.2.2.2.2.2.2.2.2.2.2.2.2.2.2.2.2.2.2.2.2.2.2.2.2.2.2.2.2.3.3.3.3.3.3.3.3.3.3.3.3.",
"3.3.3.3.3.3.3.3.3.3.3.3.3.3.3.2.2.2.2.2.2.2.2.2.2.2.2.2.2.2.2.2.2.2.2.2.2.2.2.2.2.2.2.2.2.2.2.2.2.2.2.2.2.2.2.2.2.2.2.2.2.2.2.3.3.3.3.3.3.3.3.3.3.3.3.",
"3.3.3.3.3.3.3.3.3.3.3.3.3.2.2.2.2.2.2.2.2.2.2.2.2.2.2.2.2.2.2.2.2.2.2.2.2.2.2.2.2.2.2.2.2.2.2.2.2.2.2.2.2.2.2.2.2.2.2.2.2.2.2.2.2.3.3.3.3.3.3.3.3.3.3.",
"3.3.3.3.3.3.3.3.3.3.3.3.2.2.2.2.2.2.2.2.2.2.2.2.2.2.2.2.2.2.2.2.2.2.2.2.2.2.2.2.2.2.2.2.2.2.2.2.2.2.2.2.2.2.2.;.*.#.+.X.X.#.;.2.2.2.3.3.3.3.3.3.3.3.3.",
"3.3.3.3.3.3.3.3.3.3.3.3.2.2.2.2.2.2.2.2.2.2.2.2.2.2.2.2.2.2.2.2.2.2.2.2.2.2.2.2.2.2.2.2.2.2.2.2.2.2.2.2.2.2.;.X.^ P F D G R ' #.2.2.3.3.3.3.3.3.3.3.3.",
"3.3.3.3.3.3.3.3.3.3.2.2.2.2.2.2.2.2.2.2.2.2.2.2.2.2.2.2.2.2.2.2.2.2.2.2.2.2.2.2.2.2.2.2.2.2.2.2.2.2.2.2.2.2.*.( C g y t u x G { *.2.2.2.3.3.3.3.3.3.3.",
"3.3.3.3.3.3.3.3.3.2.2.2.2.2.2.2.2.2.2.2.2.2.2.2.2.2.2.2.2.2.2.2.2.2.2.2.2.2.2.2.2.2.2.2.2.2.2.2.2.2.2.2.2.2.#.Y k 7 : = , q b ( *.2.2.2.2.3.3.3.3.3.3.",
"3.3.3.3.3.3.3.3.3.2.2.2.2.2.2.2.2.2.2.2.2.2.2.2.2.2.2.2.2.2.2.2.2.2.2.2.2.2.2.2.2.2.2.2.2.2.2.2.2.2.2.2.2.2.#.K p , O . O 3 h ! *.2.2.2.2.3.3.3.3.3.3.",
"3.3.3.3.3.3.3.3.3.2.2.2.2.2.2.2.2.2.2.2.2.2.2.2.2.2.2.2.2.2.2.2.2.2.2.2.2.2.2.2.2.2.2.2.2.2.2.2.2.2.2.2.2.2.#.K u - . . . 1 g ! #.2.2.2.2.3.3.3.3.3.3.",
"3.3.3.3.3.3.3.3.3.2.2.2.2.2.2.2.2.2.2.2.2.2.2.2.2.2.2.2.2.2.2.2.2.2.2.2.2.2.2.2.2.2.2.;.*.#.#.*.#.;.2.2.2.;.#.P d 1 % @ % 7 l ^ *.2.2.2.2.3.3.3.3.3.3.",
"3.3.3.3.3.3.3.3.3.2.2.2.2.2.2.2.2.2.2.2.2.2.2.2.2.2.2.2.2.2.2.2.2.2.2.2.2.2.2.2.2.2.*.| ( R P Y Y ( +.;.2.2.*.W b t 7 4 7 u N ` *.2.2.2.2.3.3.3.3.3.3.",
"3.3.3.3.3.3.3.3.3.2.2.2.2.2.2.2.2.2.2.2.2.2.2.2.2.2.2.2.2.2.2.2.2.2.2.2.2.2.2.2.2.;.X.R N k d d k C ^ *.2.2.;.{ P N x x c C R X.;.2.2.2.2.3.3.3.3.3.3.",
"3.3.3.3.3.3.3.3.3.2.2.2.2.2.2.2.2.2.2.2.2.2.2.2.2.2.2.2.2.2.2.2.2.2.2.2.2.2.2.2.2.;.{ Z u 5 < 1 9 d K X.2.2.2.*.X.` ( ^ ^ ` X.*.2.2.2.2.2.3.3.3.3.3.3.",
"3.3.3.3.3.3.3.3.3.2.2.2.2.2.2.2.2.2.2.2.2.2.2.2.2.2.2.2.2.2.2.2.2.2.2.2.2.2.2.2.2.;.` M 0 % O @ : t Z | 2.2.2.;.2.*.;.*.*.;.;.2.2.2.2.2.2.3.3.3.3.3.3.",
"3.3.3.3.3.3.3.3.3.2.2.2.2.2.2.2.2.2.2.2.2.2.2.2.2.2.2.2.2.2.2.2.2.2.2.2.2.2.2.2.2.*.` b 7 @ . . & w C | 2.2.2.2.2.2.2.2.2.2.2.2.2.2.2.2.2.3.3.3.3.3.3.",
"3.3.3.3.3.3.3.3.3.2.2.2.2.2.2.2.2.2.2.2.2.2.2.2.2.2.2.2.2.2.2.2.2.2.2.2.2.2.2.2.2.;.` M 0 & O @ : t Z X.2.2.2.2.2.2.2.2.2.2.2.2.2.2.2.2.2.3.3.3.3.3.3.",
"3.3.3.3.3.3.3.3.3.2.2.2.2.2.2.2.2.2.2.2.2.2.2.2.2.2.2.2.2.2.2.2.2.2.2.2.2.2.2.2.2.;.{ Z u 5 < 1 7 h K +.2.2.2.2.2.2.2.2.2.2.2.2.2.2.2.2.2.3.3.3.3.3.3.",
"3.3.3.3.3.3.3.3.3.2.2.2.2.2.2.2.2.2.2.2.2.2.2.2.2.2.2.2.2.2.2.2.2.2.2.2.2.2.2.2.2.;.X.R N k a d k C ^ *.2.2.2.2.2.2.2.2.2.2.2.2.2.2.2.2.2.3.3.3.3.3.3.",
"3.3.3.3.3.3.3.3.3.2.2.2.2.2.2.2.2.2.2.2.2.2.2.2.2.2.2.2.2.2.2.2.2.2.2.2.2.2.2.2.2.2.*.| ( R Y P Y ^ X.;.2.2.2.2.2.2.2.2.2.2.2.2.2.2.2.2.2.3.3.3.3.3.3.",
"3.3.3.3.3.3.3.3.3.2.2.2.2.2.2.2.2.2.2.2.2.2.2.2.2.2.2.2.2.2.2.2.2.2.2.2.2.2.2.2.2.2.2.;.*.*.#.#.#.;.;.2.2.2.2.2.2.2.2.2.2.2.2.2.2.2.2.2.2.3.3.3.3.3.3.",
"3.3.3.3.3.3.3.3.3.3.2.2.2.2.2.2.2.2.2.2.2.2.2.2.2.2.2.2.2.2.2.2.2.2.2.2.2.2.2.2.2.2.2.2.2.2.2.2.2.2.2.2.2.2.2.2.2.2.2.2.2.2.2.2.2.2.2.2.2.3.3.3.3.3.3.",
"3.3.3.3.3.3.3.3.3.3.3.3.2.2.2.2.2.2.2.2.2.2.2.2.2.2.2.2.2.2.2.2.2.2.2.2.2.2.2.2.2.2.2.2.2.2.2.2.2.2.2.2.2.2.2.2.2.2.2.2.2.2.2.2.2.2.2.2.2.3.3.3.3.3.3.",
"3.3.3.3.3.3.3.3.3.3.3.3.2.2.2.2.2.2.2.2.2.2.2.2.2.2.2.2.2.2.2.2.2.2.2.2.2.2.2.2.2.2.2.2.2.2.2.2.2.2.2.2.2.2.2.2.2.2.2.2.2.2.2.2.2.2.2.2.2.3.3.3.3.3.3.",
"3.3.3.3.3.3.3.3.3.3.3.3.2.2.2.2.2.2.2.2.2.2.2.2.2.2.2.2.2.2.2.2.2.2.2.2.2.2.2.2.2.2.2.2.2.2.2.2.2.2.2.2.2.2.2.2.2.2.2.2.2.2.2.2.2.2.2.2.3.3.3.3.3.3.3.",
"3.3.3.3.3.3.3.3.3.3.3.3.2.2.2.2.2.2.2.2.2.2.2.2.2.2.2.2.2.2.2.2.2.2.2.2.2.2.2.2.2.2.2.2.2.2.2.2.2.2.2.2.2.2.2.2.2.2.2.2.2.2.2.2.2.2.3.3.3.3.3.3.3.3.3.",
"3.3.3.3.3.3.3.3.3.3.3.3.2.2.2.2.2.2.2.2.2.2.2.2.2.2.2.2.2.2.2.2.2.2.2.2.2.2.2.2.2.2.2.2.2.2.2.2.2.2.2.2.2.2.2.2.2.2.2.2.2.2.2.2.2.2.3.3.3.3.3.3.3.3.3.",
"3.3.3.3.3.3.3.3.3.3.3.3.3.2.2.2.2.2.2.2.2.2.2.2.2.2.2.2.2.2.2.2.2.2.2.2.2.2.2.2.2.2.2.2.2.2.2.2.2.2.2.2.2.2.2.2.2.2.2.2.2.2.2.2.2.2.3.3.3.3.3.3.3.3.3.",
"3.3.3.3.3.3.3.3.3.3.3.3.3.3.3.2.2.2.2.2.2.2.2.2.2.2.2.2.2.2.2.2.2.2.2.2.2.2.2.2.2.2.2.2.2.2.2.2.2.2.2.2.2.2.2.2.2.2.2.2.2.2.2.2.2.2.3.3.3.3.3.3.3.3.3.",
"3.3.3.3.3.3.3.3.3.3.3.3.3.3.3.2.2.2.2.2.2.2.2.2.2.2.2.2.2.2.2.2.2.2.2.2.2.2.2.2.2.2.2.2.2.2.2.2.2.2.2.2.2.2.2.2.2.2.2.2.2.2.2.2.2.2.3.3.3.3.3.3.3.3.3.",
"3.3.3.3.3.3.3.3.3.3.3.3.3.3.3.2.2.2.2.2.2.2.2.2.2.3.2.2.2.2.2.2.2.2.2.2.2.3.2.2.3.2.2.2.2.2.2.2.2.2.2.2.3.2.2.2.3.3.2.2.2.2.2.2.2.2.3.3.3.3.3.3.3.3.3.",
"3.3.3.3.3.3.3.3.3.3.3.3.3.3.3.2.2.2.2.2.2.2.2.2.3.3.3.2.2.2.2.2.2.2.2.2.3.3.3.3.3.3.2.2.2.2.2.2.2.2.2.3.3.3.3.3.3.3.3.2.2.2.2.2.2.2.3.3.3.3.3.3.3.3.3.",
"3.3.3.3.3.3.3.3.3.3.3.3.3.3.3.2.2.2.2.2.2.2.2.3.3.3.3.3.2.2.2.2.2.2.2.3.3.3.3.3.3.3.3.2.2.2.2.2.2.2.3.3.3.3.3.3.3.3.3.3.2.2.2.2.2.2.3.3.3.3.3.3.3.3.3.",
"3.3.3.3.3.3.3.3.3.3.3.3.3.3.2.2.2.2.2.2.2.2.3.3.3.3.3.3.3.2.2.2.2.2.3.3.3.3.3.3.3.3.3.3.2.2.2.2.2.2.3.3.3.3.3.3.3.3.3.3.2.2.2.2.2.2.3.3.3.3.3.3.3.3.3.",
"3.3.3.3.3.3.3.3.3.3.3.3.3.2.2.2.2.2.2.2.2.2.2.3.3.3.3.3.2.2.2.2.2.2.2.3.3.3.3.3.3.3.3.2.2.2.2.2.2.2.2.3.3.3.3.3.3.3.3.3.2.2.2.2.2.2.3.3.3.3.3.3.3.3.3.",
"3.3.3.3.3.3.3.3.3.3.3.3.2.2.2.2.2.2.2.2.2.2.2.3.3.3.3.3.2.2.2.2.2.2.2.3.3.3.3.3.3.3.3.2.2.2.2.2.2.2.2.2.3.3.3.3.3.3.3.3.2.2.2.2.2.2.3.3.3.3.3.3.3.3.3.",
"3.3.3.3.3.3.3.3.3.3.3.3.2.2.2.2.2.2.2.2.2.2.2.3.3.3.3.3.2.2.2.2.2.2.2.3.3.3.3.3.3.3.3.3.2.2.2.2.2.2.2.2.2.3.3.3.3.3.3.3.2.2.2.2.2.2.3.3.3.3.3.3.3.3.3.",
"3.3.3.3.3.3.3.3.3.3.3.3.2.2.2.2.2.2.2.2.2.2.2.3.3.3.3.3.2.2.2.2.2.2.2.3.3.3.3.3.3.3.3.3.3.2.2.2.2.2.2.2.2.3.3.3.3.3.3.3.2.2.2.2.2.2.3.3.3.3.3.3.3.3.3.",
"3.3.3.3.3.3.3.3.3.3.3.3.2.2.2.2.2.2.2.2.2.2.2.3.3.3.3.3.2.2.2.2.2.2.2.3.3.3.3.3.3.3.3.3.3.3.2.2.2.2.2.2.2.3.3.3.3.3.3.3.2.2.2.2.2.2.3.3.3.3.3.3.3.3.3.",
"3.3.3.3.3.3.3.3.3.3.3.3.2.2.2.2.2.2.2.2.2.2.3.3.3.3.3.3.2.2.2.2.2.2.2.3.3.3.3.3.3.3.3.3.3.3.3.2.2.2.2.2.2.3.3.3.3.3.3.3.2.2.2.2.2.2.3.3.3.3.3.3.3.3.3.",
"3.3.3.3.3.3.3.3.3.3.3.3.2.2.2.2.2.2.2.2.2.3.3.3.3.3.3.3.2.2.2.2.2.2.2.3.3.3.3.3.3.3.3.3.3.3.2.2.2.2.2.2.2.3.3.3.3.3.3.3.2.2.2.2.2.2.3.3.3.3.3.3.3.3.3.",
"3.3.3.3.3.3.3.3.3.3.3.3.2.2.2.2.2.2.2.2.3.3.3.3.3.3.3.3.2.2.2.2.2.2.2.3.3.3.3.3.3.3.3.3.3.3.2.2.2.2.2.2.2.3.3.3.3.3.3.3.2.2.2.2.2.2.3.3.3.3.3.3.3.3.3.",
"3.3.3.3.3.3.3.3.3.3.3.3.3.2.2.2.2.2.2.3.3.3.3.3.3.3.3.3.2.2.2.2.2.2.3.3.3.3.3.3.3.3.3.3.3.3.3.2.2.2.2.2.2.3.3.3.3.3.3.3.2.2.2.2.2.3.3.3.3.3.3.3.3.3.3.",
"3.3.3.3.3.3.3.3.3.3.3.3.3.3.2.2.2.2.3.3.3.3.3.3.3.3.3.3.3.2.2.2.2.3.3.3.3.3.3.3.3.3.3.3.3.3.3.3.2.2.2.2.3.3.3.3.3.3.3.3.2.2.2.2.3.3.3.3.3.3.3.3.3.3.3.",
"3.3.3.3.3.3.3.3.3.3.3.3.3.3.3.3.3.3.3.3.3.3.3.3.3.3.3.3.3.3.3.3.3.3.3.3.3.3.3.3.3.3.3.3.3.3.3.3.3.3.3.3.3.3.3.3.3.3.3.3.3.3.3.3.3.3.3.3.3.3.3.3.3.3.3.",
"3.3.3.3.3.3.3.3.3.3.3.3.3.3.3.3.3.3.3.3.3.3.3.3.3.3.3.3.3.3.3.3.3.3.3.3.3.3.3.3.3.3.3.3.3.3.3.3.3.3.3.3.3.3.3.3.3.3.3.3.3.3.3.3.3.3.3.3.3.3.3.3.3.3.3.",
"3.3.3.3.3.3.3.3.3.3.3.3.3.3.3.3.3.3.3.3.3.3.3.3.3.3.3.3.3.3.3.3.3.3.3.3.3.3.3.3.3.3.3.3.3.3.3.3.3.3.3.3.3.3.3.3.3.3.3.3.3.3.3.3.3.3.3.3.3.3.3.3.3.3.3.",
"3.3.3.3.3.3.3.3.3.3.3.3.3.3.3.3.3.3.3.3.3.3.3.3.3.3.3.3.3.3.3.3.3.3.3.3.3.3.3.3.3.3.3.3.3.3.3.3.3.3.3.3.3.3.3.3.3.3.3.3.3.3.3.3.3.3.3.3.3.3.3.3.3.3.3.",
"3.3.3.3.3.3.3.3.3.3.3.3.3.3.3.3.3.3.3.3.3.3.3.3.3.3.3.3.3.3.3.3.3.3.3.3.3.3.3.3.3.3.3.3.3.3.3.3.3.3.3.3.3.3.3.3.3.3.3.3.3.3.3.3.3.3.3.3.3.3.3.3.3.3.3.",
"3.3.3.3.3.3.3.3.3.3.3.3.3.3.3.3.3.3.3.3.3.3.3.3.3.3.3.3.3.3.3.3.3.3.3.3.3.3.3.3.3.3.3.3.3.3.3.3.3.3.3.3.3.3.3.3.3.3.3.3.3.3.3.3.3.3.3.3.3.3.3.3.3.3.3.",
"3.3.3.3.3.3.3.3.3.3.3.3.3.3.3.3.3.3.3.3.3.3.3.3.3.3.3.3.3.3.3.3.3.3.3.3.3.3.3.3.3.3.3.3.3.3.3.3.3.3.3.3.3.3.3.3.3.3.3.3.3.3.3.3.3.3.3.3.3.3.3.3.3.3.3.",
"3.3.3.3.3.3.3.3.3.3.3.3.3.3.3.3.3.3.3.3.3.3.3.3.3.3.3.3.3.3.3.3.3.3.3.3.3.3.3.3.3.3.3.3.3.3.3.3.3.3.3.3.3.3.3.3.3.3.3.3.3.3.3.3.3.3.3.3.3.3.3.3.3.3.3.",
"3.3.3.3.3.3.3.3.3.3.3.3.3.3.3.3.3.3.3.3.3.3.3.3.3.3.3.3.3.3.3.3.3.3.3.3.3.3.3.3.3.3.3.3.3.3.3.3.3.3.3.3.3.3.3.3.3.3.3.3.3.3.3.3.3.3.3.3.3.3.3.3.3.3.3."
};
