/* XPM */
static char *FLAG[] = {
/* columns rows colors chars-per-pixel */
"75 75 2 1 ",
"  c #EDE285",
". c None",
/* pixels */
"...........................................................................",
"...........................................................................",
"...........................................................................",
"..........................    .............................................",
".........................      ............................................",
"..........................      ...........................................",
"..........................      ...           ....................... .....",
".........................       ..             ......................  ....",
"........................        ..             ......................   ...",
".......................         ..                     ........         ...",
"......................          ..                      .......         ...",
"......................         ...                       ......         ...",
"......................       .....                                     ....",
"......................      ......                                    .....",
"......................       .....                                   ......",
"......................       .....                                   ......",
"......................       ......                                  ......",
"......................       .....                                   ......",
"......................       ....                                    ......",
".......................      ...                                     ......",
"......................       ..                                      ......",
".....................        ..                                      ......",
"....................         ..                                      ......",
"...................          ..                                      ......",
"..................           ..                                     .......",
"..................           ..                                    ........",
"..................          ...                                   .........",
"..................         ....                                   .........",
"..................        ......                                  .........",
"..................       ......                                   .........",
"..................       .....                                    .........",
"..................        ...                                     .........",
"..................        ..                                      .........",
"..................        ..                                     ..........",
"..................        ..    ..    ..                        ...........",
"..................        ..    ........                       ............",
"...................       ..   ..........                     .............",
"....................      ...  ..........      ..         .  ..............",
"...................       ........................       ..................",
"..................        .........................     ...................",
".................         ..........................   ....................",
"................         ..................................................",
"...............         ...................................................",
"...............        ....................................................",
"...............       .....................................................",
"...............       .....................................................",
"...............        ....................................................",
"...............        ....................................................",
"...............        ....................................................",
"...............        ....................................................",
"...............        ....................................................",
"...............        ....................................................",
"..............         ....................................................",
".............          ....................................................",
"............           ....................................................",
"............          .....................................................",
"............         ......................................................",
"............        .......................................................",
"............       ........................................................",
"............      .........................................................",
"............       ........................................................",
"............        .......................................................",
"............        .......................................................",
".........                      ............................................",
".........                       ...........................................",
".........                       ...........................................",
"......                          ...........................................",
".......                        ............................................",
"........                      .............................................",
"...........................................................................",
"...........................................................................",
"...........................................................................",
"...........................................................................",
"...........................................................................",
"..........................................................................."
};
