/* XPM */
static char *ORB[] = {
/* columns rows colors chars-per-pixel */
"75 75 119 2 ",
"   c #2F0C16",
".  c #320D18",
"X  c #330D19",
"o  c #340E19",
"O  c #350E19",
"+  c #360E1A",
"@  c #370E1A",
"#  c #380E1A",
"$  c #380F1B",
"%  c #390F1B",
"&  c #390F1C",
"*  c #3A0F1C",
"=  c #3B0F1C",
"-  c #3C0F1D",
";  c #3A101C",
":  c #3B101C",
">  c #3C101D",
",  c #3E101E",
"<  c #3F101E",
"1  c #41111F",
"2  c #431120",
"3  c #451221",
"4  c #471222",
"5  c #491323",
"6  c #4C1324",
"7  c #4E1426",
"8  c #501526",
"9  c #521527",
"0  c #541628",
"q  c #56162A",
"w  c #57172A",
"e  c #58172B",
"r  c #5A172C",
"t  c #5D182C",
"y  c #5E182D",
"u  c #60192F",
"i  c #61192F",
"p  c #641A30",
"a  c #661A31",
"s  c #6A1B33",
"d  c #6D1C35",
"f  c #6F1D36",
"g  c #721D37",
"h  c #741E38",
"j  c #771F3A",
"k  c #7C203C",
"l  c #7E213D",
"z  c #7F213E",
"x  c #80213E",
"c  c #81223E",
"v  c #832240",
"b  c #852340",
"n  c #862341",
"m  c #872342",
"M  c #882442",
"N  c #8A2443",
"B  c #8B2444",
"V  c #8C2544",
"C  c #8D2545",
"Z  c #902646",
"A  c #922647",
"S  c #952749",
"D  c #98274A",
"F  c #9E294C",
"G  c #A12A4E",
"H  c #A42B50",
"J  c #A62B51",
"K  c #A92C52",
"L  c #AB2D53",
"P  c #AE2D55",
"I  c #AF2E55",
"U  c #B12E56",
"Y  c #B32F57",
"T  c #B42F58",
"R  c #B63059",
"E  c #B73059",
"W  c #B9305A",
"Q  c #B9315A",
"!  c #BA315B",
"~  c #BC315C",
"^  c #BE325C",
"/  c #C1325E",
"(  c #C3335F",
")  c #C53460",
"_  c #C73461",
"`  c #C93562",
"'  c #CB3563",
"]  c #CD3664",
"[  c #CF3665",
"{  c #D13765",
"}  c #D13666",
"|  c #D23767",
" . c #D33767",
".. c #D43867",
"X. c #D43768",
"o. c #D53868",
"O. c #D63868",
"+. c #D63869",
"@. c #D73869",
"#. c #D73969",
"$. c #D83869",
"%. c #D9386A",
"&. c #D8396A",
"*. c #D9396A",
"=. c #D9396B",
"-. c #DA396A",
";. c #DA396B",
":. c #DB396B",
">. c #DC396B",
",. c #DC3A6B",
"<. c #DC396C",
"1. c #DD3A6C",
"2. c #DE3A6C",
"3. c #DE3A6D",
"4. c #DF3A6D",
"5. c #DF3B6D",
"6. c #E03B6D",
"7. c #E23B6E",
"8. c None",
/* pixels */
"8.8.8.8.8.8.8.8.8.8.8.8.8.8.8.8.8.8.8.8.8.8.8.8.8.8.8.8.8.8.8.8.8.8.8.8.8.8.8.8.8.8.8.8.8.8.8.8.8.8.8.8.8.8.8.8.8.8.8.8.8.8.8.8.8.8.8.8.8.8.8.8.8.8.8.",
"8.8.8.8.8.8.8.8.8.8.8.8.8.8.8.8.8.8.8.8.8.8.8.8.8.8.8.8.8.8.8.8.8.8.8.8.8.8.8.8.8.8.8.8.8.8.8.8.8.8.8.8.8.8.8.8.8.8.8.8.8.8.8.8.8.8.8.8.8.8.8.8.8.8.8.",
"8.8.8.8.8.8.8.8.8.8.8.8.8.8.8.8.8.8.8.8.8.8.8.8.8.8.8.8.8.8.8.8.8.8.8.8.8.8.8.8.8.8.8.8.8.8.8.8.8.8.8.8.8.8.8.8.8.8.8.8.8.8.8.8.8.8.8.8.8.8.8.8.8.8.8.",
"8.8.8.8.8.8.8.8.8.8.8.8.8.8.8.8.8.8.8.8.8.8.8.8.8.8.8.8.8.8.8.8.*.*.*.*.*.*.*.*.,.+.,.+.*.*.8.8.8.8.8.8.8.8.8.8.8.8.8.8.8.8.8.8.8.8.8.8.8.8.8.8.8.8.8.",
"8.8.8.8.8.8.8.8.8.8.8.8.8.8.8.8.8.8.8.8.8.8.8.8.8.8.8.8.8.8.8.*.*.*.*.*.*.*.*.*.+.,.+.,.*.*.*.8.8.8.8.8.8.8.8.8.8.8.8.8.8.8.8.8.8.8.8.8.8.8.8.8.8.8.8.",
"8.8.8.8.8.8.8.8.8.8.8.8.8.8.8.8.8.8.8.8.8.8.8.8.8.8.8.8.8.8.8.*.*.*.*.*.*.*.*.>.,.*.,.+.*.*.*.8.8.8.8.8.8.8.8.8.8.8.8.8.8.8.8.8.8.8.8.8.8.8.8.8.8.8.8.",
"8.8.8.8.8.8.8.8.8.8.8.8.8.8.8.8.8.8.8.8.8.8.8.*.*.*.*.*.*.*.*.*.*.*.*.*.*.*.<.6.<.,.*.*.*.*.*.*.*.*.*.*.*.*.*.8.8.8.8.8.8.8.8.8.8.8.8.8.8.8.8.8.8.8.8.",
"8.8.8.8.8.8.8.8.8.8.8.8.8.8.8.8.8.8.8.8.8.8.*.*.*.*.*.*.*.*.*.*.*.*.>.*.*.+.+.+.+.*.*.*.*.*.*.*.*.*.*.*.*.*.*.*.8.8.8.8.8.8.8.8.8.8.8.8.8.8.8.8.8.8.8.",
"8.8.8.8.8.8.8.8.8.8.8.8.8.8.8.8.8.8.8.8.8.*.*.*.*.*.*.*.*.<.*.>.*.<.<.5.| ) ^ ~ ) X.*.<.<.<.,.,.,.*.*.*.*.*.*.*.*.8.8.8.8.8.8.8.8.8.8.8.8.8.8.8.8.8.8.",
"8.8.8.8.8.8.8.8.8.8.8.8.8.8.8.8.8.*.*.*.*.*.*.*.*.*.*.<.<.<.6.<.<.6.6.>.[ P S S K ) *.6.<.6.<.6.<.,.*.*.*.*.*.*.*.*.*.*.*.8.8.8.8.8.8.8.8.8.8.8.8.8.8.",
"8.8.8.8.8.8.8.8.8.8.8.8.8.8.8.8.*.*.*.*.*.*.*.*.*.*.*.*.*.+...+.+.+.*.{ ^ Z g d V T | *.X.$.$.X.X.X.X.*.*.*.*.*.*.*.*.*.*.*.8.8.8.8.8.8.8.8.8.8.8.8.8.",
"8.8.8.8.8.8.8.8.8.8.8.8.8.8.8.*.*.*.*.*.*.*.*.<.*.>.*.{ _ ^ ! ! ~ ^ ^ E G j 0 0 j D T ^ ~ ! W ~ ^ ` X.X.,.,.,.*.*.*.*.*.*.*.*.8.8.8.8.8.8.8.8.8.8.8.8.",
"8.8.8.8.8.8.8.8.8.8.8.8.8.8.*.*.*.*.*.*.>.<.<.<.6.6.*.) K Z N N m N V m k e 3 5 e g x C C m b b S L ) X.<.6.<.<.<.*.*.*.*.*.*.*.8.8.8.8.8.8.8.8.8.8.8.",
"8.8.8.8.8.8.8.8.8.8.8.8.8.*.*.*.*.*.*.*.*.*.*.*.,.*.[ U N s r 0 r t t w 0 3 1 - 3 9 e r t e 0 r p b P ` +.,.,.$.*.*.*.*.*.*.*.*.*.8.8.8.8.8.8.8.8.8.8.",
"8.8.8.8.8.8.8.8.8.8.8.8.*.*.*.*.*.*.>.*.*.[ _ / ( / R S d 7 < + : < < ; * % * % * * * * * * % * 3 p V T ^ ) ^ _ { +.<.*.*.*.*.*.*.*.8.8.8.8.8.8.8.8.8.",
"8.8.8.8.8.8.8.8.8.8.8.*.*.*.*.*.*.*.5.<.+.^ J S Z Z m g e 1 + X o $ $ X + % + X X .             - 9 s x V V S H ^ ..<.<.*.*.*.*.*.*.8.8.8.8.8.8.8.8.8.",
"8.8.8.8.8.8.8.8.8.8.*.*.*.*.*.*.*.*.5.*.` K b p t t t 0 3 - + + + % % % % : ; ; $ $ + + + + + + - 3 7 r t t a l J ` *.<.*.*.*.*.*.*.8.8.8.8.8.8.8.8.8.",
"8.8.8.8.8.8.8.8.8.*.*.*.*.*.,.,.,.+.+.` ! V s 3 < % < < - * * * % % % % < 1 6 7 0 7 0 8 0 8 8 8 9 9 0 9 5 2 3 p N R ` ..*.*.>.*.*.*.8.8.8.8.8.8.8.8.8.",
"8.8.8.8.8.8.8.8.*.*.*.*.*.>.<.6.<.+.( K V d 9 : + . + % % * * * % % o + 1 r g k l l l z l l l l l l l g p 5 : 5 p N J ^ ..>.2.*.*.*.*.8.8.8.8.8.8.8.8.",
"8.8.8.8.8.8.8.*.*.*.*.*.*.*.<.6.<.` K m p 9 2 * + + + % % * * * % % + ; 7 j D K U U P P P P P P P U P J c i 1 < 5 p x J ` *.5.*.*.*.*.*.8.8.8.8.8.8.8.",
"8.8.8.8.8.8.*.*.*.*.*.*.{ ` ` [ ` ! Z p 3 : % * * * * * * * * * % * 1 6 a Z ! [ +.+.{  .{  . . .{ +.+.` K x e 3 1 3 i N T ` ..+.*.*.*.*.*.8.8.8.8.8.8.",
"8.8.8.8.8.*.*.*.*.<.*.[ ! K F F F V g 9 < X + * * * * * * * + % - 3 e d V K _ *.5.<.5.<.5.>.,.,.<.6.>.+.^ G x i 7 1 7 s V J ^ { +.*.*.*.*.8.8.8.8.8.8.",
"8.8.8.8.*.*.*.*.*.<.+.) F x d s s p 0 3 * + % * * * * * * * % % 1 0 j S R _ { 2.5.<.<.5.<.5.5.<.5.<.5.*.[ ^ K N p 5 1 5 i c G _ +.<.*.*.*.8.8.8.8.8.8.",
"8.8.8.*.*.*.*.*.<.<.X.^ V p 3 1 1 1 < : * * * * * * * * * * + + 2 u m W { *.*.*.+.*.*.*.*.*.*.*.*.*.*.*.*.+.` J j 9 ; ; 1 a Z ^ *.<.,.*.*.8.8.8.8.8.8.",
"8.8.8.*.*.*.*.*.<.6.+.^ N e < X X + + % * * * * * * * * * * + + 2 u A / $.6.>.*.*.*.*.*.*.*.*.*.*.*.*.*.5.<...Y l 9 + . % e V ^ +.5.,.,.+.,.8.8.8.8.8.",
"8.8.8.*.*.*.*.*.>.6.+.~ N e ; X X + % % * * * * * * * * * * + + 1 u Z / $.6.>.*.*.*.*.*.*.*.*.*.*.*.*.*.>.6...Y l 9 +   % e m ^ ,.<.,.&.,.+.,.8.8.8.8.",
"8.8.8.*.*.*.*.+.+.*.{ R x e = + % * % * * * * * * * * * * * + X - u Z ^ *.>.>.>.*.*.*.*.*.*.*.*.*.*.*.*.5.>.+.P l 7 +   % e c T ` +.,.,.+.&.,.&.8.8.8.",
"8.8.8.*.*.*.*.*.[ ( P Z d 7 < % + * * * * * * * * * * * % % + + 2 u Z / *.6.6.*.*.*.*.*.*.*.*.*.*.*.*.*.>.5.{ P l 9 %   * 7 g Z P ) [ X.,.&.X.,.8.8.8.",
"8.8.8.*.*.*.<.+.) J m s 0 3 * % % % * * * * * * * * * * * * + + 2 t V ^ *.>.>.*.*.*.*.*.*.*.*.*.*.*.*.*.<.<...P l 7 % X * 3 0 s b J ) X.,.,.,.+.8.8.8.",
"8.8.8.*.*.*.<.+.~ V p 5 < : * * * * * * * * * * * * * * * * + . < p Z ^ +.>.*.>.*.*.*.*.*.*.*.*.*.*.*.*.6.<...U l 9 * + * * 2 5 p N T X.<.,.+.,.8.8.8.",
"8.8.8.*.*.>.<.+.E x 0 + + + : * * * * * * * * * * * * * * * + + < p S / *.6.6.5.,.*.*.*.*.*.*.*.*.*.*.*.<.6.X.U l 9 % X % % + * 0 v T [ 4.,.,.+.8.8.8.",
"8.8.8.*.*.<.<. .E l 0 + X + * * * * * * * * * * * * * * * * % + < u Z ( <.6.6.<.,.*.*.*.*.*.*.*.*.*.+.*.<.6.+.U l 9 % + + % + * 0 j T X.4.,.+.,.8.8.8.",
"8.8.8.*.*.*.*.| ! c 0 = + % * * * * * * * * * * * * * * * % + + < r V E [ *.+.+. .+.*.*.*.*.*.*.*.*.*.*.*.,.` J k 7 % + % % + % 0 z E  .<.,.,.&.8.8.8.",
"8.8.8.*.*.>.>.| ! c e = % % * * * * * * * * * * * * * * * % + + : w k F P E E ! _ X.<.5.>.*.*.,.6.5.*.*.X._ E S d 5 * + % + % - e b E X.,.,.X.,.8.8.8.",
"8.8.8.*.*.>.>.O.! c e % o + * * * * * * * * * * * * * * * * % % < 5 p k x v c S P _ ,.4.5.2.2.2.6.<.6.*.) K V d 0 3 : * % + + % e v E X.,.,.=.,.8.8.8.",
"8.8.8.*.*.*.*.| ! c e = . + * % * * * * * * * * * * * * * * - - : 2 5 7 0 0 w s S T | ,.*.+...+.+.*.+.[ P b p 5 2 < * * * + X % e z E X.<.,.=.X.8.8.8.",
"8.8.8.*.*.<.<.| Y c t = X + % - * * * * * * * * * * * * * * * * * * : < : $ < 7 j F T ~ ~ E E E ! ^ ~ Y Z d 5 $ + * * % < + + + e b T +.<.,.&.,.8.8.8.",
"8.8.8.*.*.*.6.O.Y m e ; + % = % * * * * * * * * * * * * * * * * * : + + X X % 2 t g b V V b V V N N N m d w < + + % * - % + X $ e v T +.<.%.,.X.8.8.8.",
"8.8.8.*.*.>.<...! c e = + + * * * * * * * * * * * * * * * * * * * * + + % + ; < 5 0 e r r r r r e e r w 9 3 : + + % % % % . + ; 0 z T X.4.,.,.,.8.8.8.",
"8.8.8.*.*.>.6.| ! l 9 + X + * * * * * * * * * * * * * * * * * * * * * * % % ; + * , > > : * < 2 < < < : < < : : * * % ; ; $ + ; e v T X.4.,.X.,.8.8.8.",
"8.8.8.*.*.>.<.+.R l 7 X X + * * * * * * * * * * * * * * * * * * * * * * * * * + $ + + X + + + + + + + + + * * * * * * * : + + $ e m T X.,.,.X.,.8.8.8.",
"8.8.8.*.*.<.<.O.E x 0 $ + : * * * * * * * * * * * * * * * * * * * * * * * * * < : + + : + * + + + + + + * + * : * * * * : * X + e m ~ X.,.&.=.=.8.8.8.",
"8.8.8.*.*.*.<.+.~ V p 5 2 < - * * * * * * * * * * * * * * * * * * * * * * * * * * * : * * * * * % % * * * * : + + : < : $ + + : r b T X.,.,.=.,.8.8.8.",
"8.8.8.*.*.*.>.+._ K V g r 3 * * % * * * * * * * * * * * * * * * * * * * * * * * * * * * * * * : - % * * * * < : * * + : $ + X : r m E X.,.%.=.X.8.8.8.",
"8.8.8.*.*.*.*.+.{ _ Y S g 9 % + + * * * * * * * * * * * * * * * * * * * * * * * * * * * * * * + % % < % * * : * < + + $ : $ X + 0 m T X.6.<.,.X.8.8.8.",
"8.8.8.*.*.*.*.*.*.<.[ Y x e - X + * * * * * * * * * * * * * * * * * * * * * * * * * * * * * * * + + : < : + * * ; + : : : $ + + e m T X.<.<.,.&.8.8.8.",
"8.8.8.*.*.*.*.>.<.7.+.~ b r * + + % * * * * * * * * * * * * * * * * * * * * * * * * * * * * * * % ; : * * + * * % * : < : + X $ e v T X.7.<.,.&.8.8.8.",
"8.8.8.*.*.*.*.*.6.<.*.^ b r % + + * * * * * * * * * * * * * * * * * * * * * * * * * * * * * * * : : < + * : : * + : : : + X X : 0 v T X.<.,.&.,.8.8.8.",
"8.8.8.*.*.*.*.*.<.6.+.^ Z p 3 < : : + ; % % * * * * * * * * * * * * * * * * * * * * * * * * * * * * * * * * * * * * * * * + X % 0 l E ..5.*.,.%.8.8.8.",
"8.8.8.8.*.*.*.*.*.<.*.( K N s 9 1 ; + % * * * * * * * * * * * * * * * * * * * * * * * * * * * * * * * * * * * * * * * * * + X + 0 c E +.,.,.,.X.8.8.8.",
"8.8.8.8.8.*.*.*.*.>.*.[ ) U Z d 9 < $ $ * * * * * * * * * * * * * * * * * * * * * * * * * * * * * * * * * * * * * * * % < % X + 0 x ! { ,.,.+.X.8.8.8.",
"8.8.8.8.8.8.*.*.*.*.*.*. .` E V p 3 : < : * * * * * * * * * * * * * * * * * * * * * * * * * * * * * * * * * * * * * * < % % * 1 t m ~ +.<.,.,.,.8.8.8.",
"8.8.8.8.8.8.*.*.*.*.*.<.<.*.` K m p 0 3 < % % * * * * * * * * * * * * * * * * * * * * * * * * * * * * * * * * * * * % + + - 9 i l G )  .<.,.*.*.8.8.8.",
"8.8.8.8.8.8.*.*.*.*.*.*.<.5.{ _ L Z g 9 < + % * * * * % * * * * * * * * * * * * * * * * * * * * * * * * * * * * * * + X % 5 p b J ^ [ +.,.*.*.*.8.8.8.",
"8.8.8.8.8.8.*.*.*.*.*.*.*.*.*.+.] U N i 1 + % % * * * % * * * * * * * * * * * * * * * * * * - % * * * * * * * * * * % * 2 t x U _  .+.+.*.*.*.*.8.8.8.",
"8.8.8.8.8.8.8.*.*.*.*.*.*.*.,.<.*.( S i < X + + + + % % % * * * * * * * * * * * * * * * * * % = * * * * * * * + + % 1 5 i l F _ *.<.,.*.*.*.*.*.8.8.8.",
"8.8.8.8.8.8.8.8.*.*.*.*.*.*.,.5.<.` D p - X X X + + % % % * * % * * * * * * * * * * * * * * = % * * * % * * * + + % 7 p m G W | <.<.>.*.*.*.*.*.8.8.8.",
"8.8.8.8.8.8.8.8.8.*.*.*.*.*.,.<.%.) D s 3 * - - - - 1 - - * * % * * % - * * * * * * * * * * % = * % - % * * * % * 1 t N U ` | O.*.*.*.*.*.*.*.*.8.8.8.",
"8.8.8.8.8.8.8.8.8.8.*.*.*.*.*.<.$.) K j p t t p i i t 0 5 % + + X # # # # % * * * * * * * % % % % % + % + + * 1 5 i l G ` *.>.*.*.*.*.*.*.*.*.8.8.8.8.",
"8.8.8.8.8.8.8.8.8.8.8.*.*.*.*.,.$.| ! H Z V V Z A Z b j e 1 + X X % # # # % * * * * * % * % % X + + + + X X * 7 p m J W { >.>.*.*.*.*.*.*.*.8.8.8.8.8.",
"8.8.8.8.8.8.8.8.8.8.8.8.*.*.*.*.*.X.| ) ^ ! ^ ( ( / T D d 7 - * - % - 1 - % * * % % * % % : ; : - - = = * + 2 t N U ` { +.*.*.*.*.*.*.*.*.8.8.8.8.8.8.",
"8.8.8.8.8.8.8.8.8.8.8.8.*.*.*.*.*.*.,.X.X.*.*.*.>.*.| U C s r 0 e e y t 9 4 - % + + % % % ; 3 9 e y y e 0 r p j G _ *.<.*.*.*.*.*.*.*.*.8.8.8.8.8.8.8.",
"8.8.8.8.8.8.8.8.8.8.8.8.*.*.*.*.*.*.<.<.6.6.6.6.6.6.*.( K Z b x m B C m j u 5 % + X + + % - 0 g c m m N b V Z G ! | <.6.*.*.*.*.*.*.*.8.8.8.8.8.8.8.8.",
"8.8.8.8.8.8.8.8.8.8.8.8.*.*.*.*.*.*.,.,.%.,.*.*.*.*.*.| ) ^ ~ ^ W ^ / W G j 0 1 + % % % - 5 s A T ^ ^ ! ! ! ^ / ] ..>.*.*.*.*.*.*.*.8.8.8.8.8.8.8.8.8.",
"8.8.8.8.8.8.8.8.8.8.8.8.8.*.*.*.*.*.*.*.*.*.*.*.*.*.*.*.*.+.*.+.X.,.&. .^ D g r 0 0 0 0 0 p b P [ +.,.X.+.+.+.+.X.,.*.*.*.*.*.*.*.8.8.8.8.8.8.8.8.8.8.",
"8.8.8.8.8.8.8.8.8.8.8.8.8.8.*.*.*.*.*.*.*.*.*.*.*.*.*.<.<.6.6.<.4.<.<.<.` T S m l x l l l V J ) ,.<.<.<.<.5.<.,.,.*.*.*.*.*.*.*.8.8.8.8.8.8.8.8.8.8.8.",
"8.8.8.8.8.8.8.8.8.8.8.8.8.8.8.8.8.8.8.8.8.*.*.*.*.*.*.*.,.,.,.,.,.,.,.,.+.` ^ E R E E E P ! ) [ *.,.,.,.,.&.,.,.*.*.*.*.*.*.*.8.8.8.8.8.8.8.8.8.8.8.8.",
"8.8.8.8.8.8.8.8.8.8.8.8.8.8.8.8.8.8.8.8.8.8.*.*.*.*.*.*.&.+.,.+.X.=.=.*.+.+. . .|  .+.{ X.X.X.X.+.,.X.,.=.,.&.&.*.*.*.*.*.*.8.8.8.8.8.8.8.8.8.8.8.8.8.",
"8.8.8.8.8.8.8.8.8.8.8.8.8.8.8.8.8.8.8.8.8.8.8.*.*.*.*.*.&.,.+.,.*.*.*.*.*.,.<.<.<.<.<.<.<.4.%.,.*.*.*.*.X.,.X.,.*.*.*.*.*.8.8.8.8.8.8.8.8.8.8.8.8.8.8.",
"8.8.8.8.8.8.8.8.8.8.8.8.8.8.8.8.8.8.8.8.8.8.8.8.8.8.8.8.8.8.8.+.*.*.*.*.*.,.<.,.,.,.,.,.,.,.,.&.*.*.*.*.,.&.8.8.8.8.8.8.8.8.8.8.8.8.8.8.8.8.8.8.8.8.8.",
"8.8.8.8.8.8.8.8.8.8.8.8.8.8.8.8.8.8.8.8.8.8.8.8.8.8.8.8.8.8.8.,.*.*.*.*.*.*.*.*.*.*.*.*.,.&.,.,.*.*.*.*.,.8.8.8.8.8.8.8.8.8.8.8.8.8.8.8.8.8.8.8.8.8.8.",
"8.8.8.8.8.8.8.8.8.8.8.8.8.8.8.8.8.8.8.8.8.8.8.8.8.8.8.8.8.8.8.8.*.*.*.*.*.*.*.*.*.*.*.*.&.&.=.X.*.*.*.*.8.8.8.8.8.8.8.8.8.8.8.8.8.8.8.8.8.8.8.8.8.8.8.",
"8.8.8.8.8.8.8.8.8.8.8.8.8.8.8.8.8.8.8.8.8.8.8.8.8.8.8.8.8.8.8.8.8.8.8.8.8.8.8.8.8.8.8.8.8.8.8.8.8.8.8.8.8.8.8.8.8.8.8.8.8.8.8.8.8.8.8.8.8.8.8.8.8.8.8.",
"8.8.8.8.8.8.8.8.8.8.8.8.8.8.8.8.8.8.8.8.8.8.8.8.8.8.8.8.8.8.8.8.8.8.8.8.8.8.8.8.8.8.8.8.8.8.8.8.8.8.8.8.8.8.8.8.8.8.8.8.8.8.8.8.8.8.8.8.8.8.8.8.8.8.8.",
"8.8.8.8.8.8.8.8.8.8.8.8.8.8.8.8.8.8.8.8.8.8.8.8.8.8.8.8.8.8.8.8.8.8.8.8.8.8.8.8.8.8.8.8.8.8.8.8.8.8.8.8.8.8.8.8.8.8.8.8.8.8.8.8.8.8.8.8.8.8.8.8.8.8.8."
};
