/* XPM */
static char *TILE[] = {
/* columns rows colors chars-per-pixel */
"75 75 2 1 ",
"  c gray14",
". c None",
/* pixels */
"...........................................................................",
"...........................................................................",
"...........................................................................",
"..............                                                       ......",
".............                                                        ......",
"............                                                         ......",
"...........                                                             ...",
"..........                                                              ...",
".........                                                               ...",
"........         ............................................           ...",
".......         ..............................................          ...",
"......         ................................................         ...",
"......        ..................................................        ...",
"......       ..........                             .............       ...",
"......      ..........                               .............      ...",
"......      ........                                  ............      ...",
"......      ......                                     ...........      ...",
"......      ....                                        ..........      ...",
"......      ....                                         .........      ...",
"......      ....                                          ........      ...",
"......      ....                                           .......      ...",
"......      ....                                           .......      ...",
"......      ....                                           .......      ...",
"......      ....                                           .......      ...",
".....       ....                                           .......      ...",
"....        ....                                          ........      ...",
"...         ....                                           .......      ...",
"...         ....                                            ......      ...",
"...         ....                                             .....      ...",
"...         ....                                              ....      ...",
"...         ....                                              ....      ...",
"...        ......                                             ....      ...",
"...       ......                                              ....      ...",
"...      ......                                               ....      ...",
"...      .....                                                ....      ...",
"...      ....                                                 ....      ...",
"...      ....                                                 ....      ...",
"...      ....                                                 ....      ...",
"...      ....                                                 ....      ...",
"...      ....                                                 ....      ...",
"...      ....                                                 ....      ...",
"...      ....                                                 ....      ...",
"...      ....                                                 ....      ...",
"...      ....                                                 ....      ...",
"...      ....                                                 ....      ...",
"...      ....                                                 ....      ...",
"...      ....                                                 ....      ...",
"...      ....                                                 ....      ...",
"...      ....                                                 ....      ...",
"...      ....                                                .....      ...",
"...      ....                                               ......      ...",
"...      ....                                              .......      ...",
"...      .....                                            ......        ...",
"...      ......                                          ......         ...",
"...      ......                                         .......         ...",
"...      .......                                       .......          ...",
"...      .......                                        .....           ...",
"...      ........                                       .....           ...",
"...      .........                                     ......          ....",
"...      ...........                                  ........        .....",
"...      .............                               ..........      ......",
"...       .............                             ...........      ......",
"...        ....................................................      ......",
"...         ...................................................      ......",
"...          .................................................       ......",
"...           ...............................................        ......",
"...                                                                  ......",
"...                                                                  ......",
"...                                                                  ......",
"......                                                            .........",
"......                                                            .........",
"......                                                            .........",
"...........................................................................",
"...........................................................................",
"..........................................................................."
};
