/* XPM */
static char *WALL[] = {
/* columns rows colors chars-per-pixel */
"75 75 197 2 ",
"   c #11151B",
".  c #11151C",
"X  c #12151C",
"o  c #12151D",
"O  c #11161C",
"+  c #12161C",
"@  c #12161D",
"#  c #13161D",
"$  c #12171D",
"%  c #13171D",
"&  c #12161E",
"*  c #13161E",
"=  c #12171E",
"-  c #13171E",
";  c #13171F",
":  c #14171E",
">  c #14171F",
",  c #13181E",
"<  c #13181F",
"1  c #14181E",
"2  c #14181F",
"3  c #14191F",
"4  c #15191F",
"5  c #131820",
"6  c #141820",
"7  c #151820",
"8  c #141920",
"9  c #151920",
"0  c #141821",
"q  c #141921",
"w  c #151921",
"e  c #141A21",
"r  c #151A21",
"t  c #161A21",
"y  c #151922",
"u  c #161922",
"i  c #151A22",
"p  c #151A23",
"a  c #161A22",
"s  c #161B22",
"d  c #161A23",
"f  c #161B23",
"g  c #171B23",
"h  c #171C23",
"j  c #161B24",
"k  c #171B24",
"l  c #171B25",
"z  c #161C24",
"x  c #171C24",
"c  c #171C25",
"v  c #171D25",
"b  c #171C26",
"n  c #181C24",
"m  c #181C25",
"M  c #181D25",
"N  c #181C26",
"B  c #181D26",
"V  c #191D26",
"C  c #181D27",
"Z  c #191D27",
"A  c #181E26",
"S  c #191E26",
"D  c #181E27",
"F  c #191E27",
"G  c #191E28",
"H  c #191F28",
"J  c #191E29",
"K  c #191F29",
"L  c #1A1E28",
"P  c #1A1F28",
"I  c #1A1F29",
"U  c #1B1F29",
"Y  c #1A1F2A",
"T  c #1B1F2A",
"R  c #1A2029",
"E  c #1B2029",
"W  c #1A202A",
"Q  c #1B202A",
"!  c #1A202B",
"~  c #1B202B",
"^  c #1B212B",
"/  c #1C212B",
"(  c #1B212C",
")  c #1B222C",
"_  c #1C212C",
"`  c #1C212D",
"'  c #1C222C",
"]  c #1C222D",
"[  c #1D222D",
"{  c #1C232D",
"}  c #1D232D",
"|  c #1C222E",
" . c #1D222E",
".. c #1D232E",
"X. c #1D232F",
"o. c #1E232E",
"O. c #1E232F",
"+. c #1D242E",
"@. c #1D242F",
"#. c #1E242F",
"$. c #1D2430",
"%. c #1E2430",
"&. c #1F2430",
"*. c #1E2530",
"=. c #1F2530",
"-. c #1E2431",
";. c #1E2531",
":. c #1F2531",
">. c #1F2631",
",. c #1F2532",
"<. c #1F2632",
"1. c #202632",
"2. c #202633",
"3. c #212633",
"4. c #202733",
"5. c #212733",
"6. c #202734",
"7. c #212734",
"8. c #212735",
"9. c #202834",
"0. c #212834",
"q. c #212835",
"w. c #212935",
"e. c #222835",
"r. c #222935",
"t. c #212836",
"y. c #222836",
"u. c #222936",
"i. c #232936",
"p. c #222937",
"a. c #232937",
"s. c #222A36",
"d. c #232A36",
"f. c #222A37",
"g. c #232A37",
"h. c #232938",
"j. c #232A38",
"k. c #232B38",
"l. c #232A39",
"z. c #232B39",
"x. c #242A38",
"c. c #242B38",
"v. c #242A39",
"b. c #242B39",
"n. c #252B39",
"m. c #242B3A",
"M. c #252B3A",
"N. c #242C39",
"B. c #252C39",
"V. c #242C3A",
"C. c #252C3A",
"Z. c #252C3B",
"A. c #252D3B",
"S. c #262C3B",
"D. c #262D3B",
"F. c #252C3C",
"G. c #252D3C",
"H. c #262D3C",
"J. c #262D3D",
"K. c #262E3C",
"L. c #272E3C",
"P. c #262E3D",
"I. c #272E3D",
"U. c #272F3D",
"Y. c #262E3E",
"T. c #272E3E",
"R. c #272F3E",
"E. c #272F3F",
"W. c #282F3E",
"Q. c #282F3F",
"!. c #27303F",
"~. c #28303F",
"^. c #29303F",
"/. c #282F40",
"(. c #273040",
"). c #283040",
"_. c #293040",
"`. c #283140",
"'. c #293140",
"]. c #283041",
"[. c #293041",
"{. c #283141",
"}. c #293141",
"|. c #2A3141",
" X c #293241",
".X c #2A3241",
"XX c #293142",
"oX c #2A3142",
"OX c #293242",
"+X c #2A3242",
"@X c #2A3243",
"#X c #2B3243",
"$X c #2A3343",
"%X c #2B3343",
"&X c #2A3244",
"*X c #2B3344",
"=X c None",
/* pixels */
"=X=X=X=X=X=X}.}.}.}.}.}.}.}.}.}.}.}.}.}.}.}.}.}.}.}.}.}.}.}.}.}.}.}.}.}.}.}.}.}.}.}.}.}.}.}.}.}.}.}.}.}.}.}.}.}.}.}.}.}.}.}.}.}.}.}.}.}.}.=X=X=X=X=X=X",
"=X=X=X=X=X=X}.}.}.}.}.}.}.}.}.}.}.}.}.}.}.}.}.}.}.}.}.}.}.}.}.}.}.}.}.}.}.}.}.}.}.}.}.}.}.}.}.}.}.}.}.}.}.}.}.}.}.}.}.}.}.}.}.}.}.}.}.}.}.=X=X=X=X=X=X",
"=X=X=X=X=X=X}.}.}.}.}.}.}.}.}.}.}.}.}.}.}.}.}.}.}.}.}.}.}.}.}.}.}.}.}.}.}.}.}.}.}.}.}.}.}.}.}.}.}.}.}.}.}.}.}.}.}.}.}.}.}.}.}.}.}.}.}.}.}.=X=X=X=X=X=X",
"=X=X=X=X=X}.}.}.}.}.}.}.}.}.}.}.}.}.}.}.}.}.}.}.}.}.}.}.}.}.&X/.}.}.}.&X&X}.}.}.}.}.}.}.}.}.}.}.}.}.}.}.}.}.%X&X}.}.}.}.}.}.}.}.}.}.}.}.}.}.=X=X=X=X=X",
"=X=X=X=X}.}.}.}.}.}.}.}.}.}.}.}./.E.~.Q.E.~.}.}./.}./.Q.Q././.Q.Q.Q././.}./.Q.Q./.Q./.}.Q.Q.E.}.Q.Q.Q.Q./.}././.Q.}.}././.}./.}.}.}.}.}.}.}.}.=X=X=X=X",
"=X=X=X}.}.}.}.}.}.}.}.}.}.}.}.~.b.k.b.b.r.b.b.Z.b.b.b.h.b.b.k.b.k.b.b.b.b.b.x.b.b.b.b.Z.b.r.b.k.k.k.b.F.b.b.b.b.b.b.b.b.b.b.L.}.}.}.}.}.}.}.}.}.=X=X=X",
"}.}.}.}.}.}.}.}.}.}.}.}.}.}.E.k.8.} } } } } ( } } } } } } } } } } } } } $.} G } } T } } } } ( <.( } } } &.} } } } G } } } $.x.Q.}.}.}.}.}.}.}.}.=X=X=X",
"}.}.}.}.}.}.}.}.}.}.~.E.}.Q.Z.1.U p i p p i v i i i p p k k i p p i g i k k p p i i i p p i i v i p i p g i i g k p g i i G 1.b.Q.}.}.}.}.}.}.}.=X=X=X",
"}.}.}.}.}.}.}.}.E.E.Z.Z.Z.b.r.( B # X X X e i X X X X i , 2 2 X X 7 X 2 X i X e X X , X i , X X e , 2 X X e X X X i e X 5 p ( r.Z.!.}.}.}.}.}.}.=X=X=X",
"}.}.}.}.}.}.}.~.Z.r.<.+.} } } G i i X , X X X X , X X X X X X # X X X X X X X X X X X , X X X , X X X X X X , X X X X X X e p ( <.B.~.}.}.}.}.}.}.}.}.",
"}.}.}.}.}.}.}.E.Z.1.R h v B i i i X # # e i X # , e i X , , # # # # i e i X 7 # 7 7 e X i X 7 # X i i # e X # 2 X , X , X 2 i n / &.Z.~.}.}.}.}.}.}.}.",
"}.}.}.}.}.}.}.}.Z.+.h , X X X X X # i i i B B g k p B g B p g g B g k B k B g k k B p B B B i k i v B p B p k p i X e X X X # 2 i B 0.Z.E.Q.}.}.}.}.}.",
"}.}.}.}.}.}.}./.b.} v X X X , X X X B ( &.+.<.} 1.1.&.&.1.$.$.1.<.} &.1.<.} +.1.1.$.} 1.&.&.+.} +.1.1.} } } $.T v X X X , , X , 2 n R 1.x.Q.}.}.}.}.}.",
"}.}.}.}.}.}.}.Q.b.$.v , X , , X 7 p ( 1.b.b.b.Z.b.b.b.b.b.F.b.Z.Z.b.Z.Z.Z.Z.b.Z.b.b.E.b.b.b.F.b.Z.Z.b.b.Z.b.b.1.( i e X , X X 2 X i B G +.Z./.}.}.}.}.",
"}.}.}.}.}./.E.F.8.} v X e p h e p G 1.b.Q.}.}.}.}.}.}./.}.}.}.}.}.Q.}.}.~.}.}.}./.}.}.}./.}./.}.}.}.}.}.}.}./.k.<.G i 7 i , X 2 2 X i i / b.}.}.}.}.}.",
"}.}.}.}./.E.k.1.} G i i G ( } ( } <.r.Q.}.}.}.}.}.}.}.}.}.}.}.}.}.}.}.}.}.}.}.}.&X}.&X}.}.}.}.}.%X&X}.}.}.&X}.E.r.<./ p i X , 2 # X X i G x.Q.}.}.}.}.",
"}.}.}.}.}.E.<.G p p i i } 1.b.x.b.Z.E.}.}.}.}.}.}.}.}.}.}.}.}.}.}.}.}.%X}.}.%X}.}.#X}.}.}.}.&X}.}.}.}.}.}.}.}.(.E.k.1.G p i X # X e X p ( Z./.}.}.}.}.",
"}.}.}.}.}.b.} B e X X k $.b.Q.}.~.}.}.}.}.}.}.}.}.}.}.}.}.}.}.}.}.}.}.}.}.}.}.}.}.}.}.}.}.}.}.}.}.}.}.}.}.}.}.}.}.Q.b.$.k # X X X X X p } Z.}.}.}.}.}.",
"}.}.}.}./.b.} i X , # g 1.E.}.}.}.}.}.}.}.}.}.}.}.}.}.}.}.}.}.}.}.}.}.}.}.}.}.}.}.}.}.}.}.}.}.}.}.}.}.}.}.}.}.}.}.}.b.} i 5 , 5 5 X X i ( b./.}.}.}.}.",
"}.}.}.}./.b.} i X X 2 i } b.}.}.}.}.}.}.}.}.}.}.}.}.}.}.}.}.}.}.}.}.}.}.}.}.}.}.}.}.}.}.}.}.}.}.}.}.}.}.}.}.}.}.}.}.b.} k X X i 7 X # p } k./.}.}.}.}.",
"}.}.}.}./.b.} p X X , v } b.E.}.}.}.}.}.}.}.}.}.}.}.}.}.}.}.}.}.}.}.}.}.}.}.}.}.}.}.}.}.}.}.}.}.}.}.}.}.}.}.}.}.}.}.b.} g 2 X i # 7 i G +.x.Q.}.}.}.}.",
"}.}.}.}.Q.b.} i , X , i G +.r.k.~.}.&X}.}.}.}.}.%X}.}.}.}.}.}.}.%X%X%X}.}.}.}.}.*X*X*X}.}.}.}.}.}.}.}.}.}.}.%X%X&X}.F.$.g # X X i p G } r.Z.}.}.}.}.}.",
"}.}.}.}./.r.} i + X 2 2 p G } 8.E.~.}.}.}.}.&X}.~.}.}.}.}.}.}.}.}.}.}.}.~.}.}.~.}.}.%X}.}.}.}.}.&X}.}.}.}.}.}.}.&X/.b.} p X X X i R 1.r.Z.~.}.}.}.}.}.",
"}.}.}.}./.E.} B 2 2 % # X i B } r.Q.Q.Q.}.Q././.E.E.E.E.E.}.E.Q.Q.E.~.~.E.~.~.E.~.E.Q.Q.E.Q./.Q.Q.Q.Q.Q.Q.Q.~.Q.E.E.r.( v e X , v +.r.E.}.}.}.}.}.}.}.",
"}.}.}.}.}.Z.1.} B i # X X e i G +.r.r.8.r.8.r.r.k.k.r.r.8.r.r.8.0.r.r.r.r.k.r.r.8.8.r.b.r.r.k.8.r.r.k.r.r.8.8.r.r.1.} G i # # X v } Z.}.}.}.}.}.%X}.}.",
"}.}.}.}.}.Q.E.r.<.B i X X 2 e p B G G } / U U U U U G } } U T ( B / R / } G G } } G G G G } T G G / U G T T } U / G B i i # X # p } Z.~.}.}.}.}.}.}.}.",
"}.}.}.}.}.}.}.E.b.+.B 2 X X # i # i 7 i i i X i 7 7 i i i 7 i i 2 2 2 i i p 7 p i i 7 5 i i i 7 i # i # i p p i 2 i 2 i i i i i B +.Z./.}.}.}.Q.}.Q.Q.",
"}.}.}.}.}.}.}.}.E.8.} B i i X X X X X X , , X , X X X # # X # X # X X , # X o # X X X X X # # # X X X X 7 # X X X X i i G R G G } 1.Z.}.%X}.Q.Q.Z.x.x.",
"}.}.}.}.}.}.}.}.Q.b.8.$.B i # X X 2 X X X X X X X X X X X X + + X X X X o # X # X X X X # + + + e X X X X X X X X X i U 1.8.1.r.r.k.E.}.}.}.E.k.1.} G ",
"~.~.}./.}.}.}.}.}.~.E.k.} k i # i i i # e i X i 5 i i 7 5 7 i # i X e i 7 # # i 5 7 5 7 i i # i i i 2 2 i X , e # 2 B +.r.E.Q.Q.].}./.}.&X}.Z.1./ v 2 ",
"r.k.F.Q.Q.}.}.}.}.}.}.Q.1.} k G B B B G G G G B v G G k C G R G B G G B G B G G G k B B B U G B G G B G G B R B G G +.0.Z.}.}.}.}.}.}.%X#X&XE.8.G X X ",
"} } 8.b.Q.}.}.}.}.}.#X}.E.1.1.8.1.1.<.1.8.<.1.1.<.8.8.$.,.8.8.<.<.0.1.1.r.8.1.8.8.1.1.1.1.1.8.<.r.1.1.8.<.8.1.<.8.1.r.Z.Q.}.%X}.}.}.}.}.*X}.Q.r.G i X ",
"i k R 8.Z.}.}.}.}.}.}.}./.Q.F.Q.E.E.E.Q.E.E.E.Q.E.E.Z.E.E.E.F.E.E.E.E.Q.Q.E.Z.E./.Q.E.E.b.E.Q.Q.E.E.Z.Z.Q.Q.b.E.E.b.Q.}.}.}.}.}.}.}.}.}.}.}.Z.<.G e X ",
"# i p } r.Z.Q.}.}.}.%X}.}.}.}.}.}.}.}.}./.Q.}.}./.}.}.}./.}.}.}.}.}.}.}.}.}.}.}.}.}./.}.}./.}.}.}.}.}.}.}.}.}.}.}./.}.&X}.}.}.}.}.}.}.&X~.E.r.<.k 7 X ",
"# X , v } r.E.Q.}.#X}.}.}.#X#X}.}.}.%X}.}.}.}.&X}.&X}.&X&X&X}.&X}.&X}.&X}.}.}.&X}.&X&X&X&X}.#X}.#X}.%X}.&X}.%X}.&X}.}.}.}.}.}.&X}.}.}./.Z.r.( B p X X ",
"X i i 2 v R 1.E./.}.}./.%X}.%X/.Q.}.}.~.}.}.}.Q.~.~./.}.}.}./././.}.}.}.}./.}.}.}.}./././.}.}.}.}.}.%X}.}.}./.}.}./.}.}.}.(.!.}.}.}.}.E.r.( v 2 i e X ",
"B p i 2 i g } 8.E.F.b.b.b.E.b.b.Z.Z.x.b.F.k.b.b.x.b.b.Z.k.k.r.k.Z.Z.F.F.Z.b.F.F.F.b.b.b.F.F.k.r.r.Z.E.b.b.r.b.F.Z.b.b.b.Z.Z.Z.r.b.F.F.8.} k i i p B k ",
"1.<.R h # 2 k } } $.$.1.$.<.} 1.+.+.} } $.} } $.} } } <.$.} } } &.} $.$.<.} } $.$.$.} } $.$.$.} } } $.<.$.} $.<.1.} 1.$.<.+.<.+.$.$.$.T k 2 7 k } } $.",
"b.k.<.R p i p B B p k k v p v p B k B B G v C G p G B B G B B B B k k B k k k k B G G G k k G G v G B G k G p B B B k G p v B B k G G k k # i G $.k.b.",
"].E.r.<.G p B k p i 7 7 5 X i e X # i k G k p G G G B k k B p i i # # # i i i k k B p p G k p v v p B p k N p B B k i i i , 5 , 7 i p B k B B } r.Q.}.",
"}.].E.r.<.} } } R p 2 X X X X , 5 X i G } } } } } } ( } } } G k # X X X i k G } $.} / } } } ( } $.} } } } } } } } } G v 2 X X X 2 B G / } } } r.E.}.}.",
"}.}.E.E.b.b.b.b.1.R i X X , X X 7 p G +.x.b.b.r.r.x.r.Z.k.r.1.G i X X , i ( 8.b.b.x.r.b.Z.x.r.r.b.k.r.r.b.b.b.b.r.r.8.G i X X , k G 1.r.b.b.b.E.~.}.*X",
"}.}.}.}./.}./.Q.Z.&.B i 2 , , 2 i B <.k.}.}.}.~.~.Q.Q.%X}.Q.r.} B 2 2 i p <.Z.~.}.}.}.Q.}.}.Q.}.}./.}.~.Q.}.}./././.b.} i 2 , i G 1.b.Q.Q.}.}.}.~.}.}.",
"}.}.}.}.}.}.}.}.Q.r.&.U B i i h G } r.E.}.}.}.}.}.%X}.%X}.}.Z.r.1./ i i v +.E.}.*X*X}.}.}.&X}.}.}.}.#X}.}.}.}.}.}.}.b.} n 2 B R $.8.Q.}.}.}.}.}.%X}.}.",
"}.}.}.~.}.}.}.~.Q.L.x.1./ g i R 1.r.E.~.}.}.}.}.}.%X}.}.}.}.}.Q.b.1.G i B <.Z.}.&X}.}.}.}.&X}.}.}.}.*X*X%X}.}.}.}./.b.} i i / 1.b.b./.%X%X}.}.}.}.~.~.",
"Q.Q.Q.Q.}.}.}.}.~.%X~.b.} B i } r.~.}.}.}.}.}.}.}.}.}.}.}.}.}.}.Q.r./ p B } r.Q.Q.E.E.E.}.}.}.}.}.}.}.}.}.}.}.}.}./.b.} h B } b.Q./.}.}.}.}./.E.~.E.Z.",
"x.r.b.Q.}.}.}.}.%X}./.Q.$.k g } Z.}.*X#X}.}.}.}.}.%X}.%X}.}.%X}.}.k.+.v i B } 8.1.1.r.Z.Q.}.}.}.}.}.}.}.%X}.}.&X%X}.b.} B B +.Q.%X&X}.%X}.}.E.E.N.r.0.",
"B / 1.b.~.%X}.}.%X}./.b.&.B g +.Z.}.}.%X}.%X}.}.%X}.}.}.%X}.}.}.}.Z.+.v i i B G G R } r.E.E.}.}.}.}.%X}.}.}.}.%X}.}.b.1.k B } Z.}.}.}.}.%X}.E.r.<./ R ",
"2 i G 1.B.Q.Q.Q.Q.~.Q.x.R g i } x.Z.~.E.E.Q.Q.Z.Q.Q.Q.Q.Q.Q.Q.Q.Z.8.} p e , i i i X k } 1.E.Q.Q.~.Q.E.E.E.E.E.Q.Q.Q.x./ n n &.x.Q.Q.Q.Q.Q.Q.b.1.G p 5 ",
"+ X i } 1.1.0.e.1.x.r.+.B i i G +.1.r.r.0.0.1.8.r.r.r.1.r.r.8.r.8.<.G i X X , X + X i B } 8.r.8.r.r.8.r.r.8.8.8.8.r.+.B i i R +.8.r.1.r.0.0.1./ k 7 + ",
"# # i p B / / / / / U B g # i i B / / R R G / U U / / U R G G / G R i # X , X X + + # i k U U / G G ( ( / G U U R / B i 2 2 i B U G R G B U G k i X + ",
"2 # i i i i i n i n n i g i i 2 g i i g i i i i i i i g k i i i i i i i , , 2 2 , X i g k i g i p e i i i i g i i i 2 2 i 2 i B v i i i i g g i , 5 X ",
"B / R G G G B B B E E B G / G U B B / P G p i 2 i g B R G B B G G G G G B R G U G R G / G B i 2 i X X , e e B G P B E B B G U R G G R G G G B B i # , ",
"r.1.1.0.1.0.1.1.1.1.0.0.1.1.0.1.0.0.1.0.1.R i i k U 1.0.0.1.1.1.r.1.8.r.r.1.r.1.8.1.1.1.1.} U i e X X , p G <.1.0.0.0.0.1.0.0.1.8.1.1.r.r.1.1./ h 2 i ",
"Q.~.E.E.Q.Q.L.E.Q.~.L.Z.Z.Q.Q.L.Q.Z.E.E.Z.<.B h G <.b.Q.~.Q.Q.Q.E.E.E.E.~.E.~.~.~.Q.Q.Q.E.x.1.B , X X e R <.Z.E.Q.Q.~.Z.Z.Q.E.E.E.Q.Q.Q.Q.E.x.+.h 2 2 ",
"}.}.}.}.}.~.~.}.}.~.%X}.%X}.}.}.}.}.}.}.E.<.G h R r.E.}.%X}.~.}.}.}.}.}.}.}.}.}.}.~.}.}.}.Q.8.G e X v G <.k.!.}.}.%X}.}.}.}.}.~.}.}./.}.}.}.E.0.B i X ",
"&X}.&X}.%X}.}.}.%X}.%X%X%X}.}.%X%X}.}.}.~.8.R i R 8.}.}.}.}.}.}.}.}.}.}.}.}.}.}.%X}.}.}.}.~.r.G i i G 1.r.E.}.}.~.%X%X~.%X}.}.}.#X&X}.}.*X#X~.r.G i X ",
"}.}.}.}.}.}.}.}.}.}.}.}.}.}.}.}.}.}.%X}.Q.1.B i R r.}.}.}.}.}.}.}.}.}.}.}.}.}.}.}.}.}.}.}.~.r.R i B 1.b.E.}.}.}.}.}.}.}.}.}.}.}.}.}.}.}.}.}.Z.8.G i e ",
"k.b.E.E.}.}.&X}.}.%X}.}.}.%X}.}.}.}.%X}.Q.r.B h R r.}.}.&X}.}.}.}.}.}.}.}.%X}.}.%X}.#X}.}.Q.r.R n R r.Q.}.}.}.#X%X}.}.}.%X}.}.}.}.}.}./.~.Z.r.} B 7 X ",
"} <.r.Z.!.}.}.}.}.}.%X!.%X}.}.%X%X}.}.%XQ.1.R i G r.}.%X*X}.}.}.}.&X&X}.}.}.*X}.}.*X#X#X#XQ.1.R v / r.Q.&X&X}.}.}.}.%X%X%X}.}.}.}.%X}./.Z.0.+.G i X X ",
"i B } r.Q./.}.}.~.}.}.}.~.~.}.}.}.}.}.}.Q.1.B g R 1.Q.}.}.}./.}.(.}./.}.(.(.}.(././.}.#X}.Q.1.B i B r.Q./.}./.}.}.}.}.}.}.~.~.}.}.}.}.Q.k.T v i i i , ",
"# i B $.8.F.Z.Z.Z.b.Z.Z.N.Z.Z.Z.Z.b.b.b.8.} B g B <.k.k.b.b.b.b.b.Z.Z.b.Z.N.b.b.b.b.b.b.b.e.&.g i B } x.b.b.b.b.b.b.b.Z.Z.Z.Z.Z.b.b.b.8.$.v , X X X X ",
"X # i k / } <.} 1.} +.&.+.+.+.+.&.} } &.} B g 2 p U } } } $.} <.} 1.$.} } } } $.1.} } 1.} U B g 2 i B } } 1.&.} &.} &.} } +.} } $.&.$.T p 7 , O X X X ",
"X # i i k k g B B g g g n h n n B B B g g i 2 i i p k k p B G k g i g g g B B B B B k B k k g 2 i i i i g B B B g g B B g i i B B B B i i 7 X X , , e ",
"v B k g k k i i e X X e X e i i i k B B k k k p p B B B B k k i , X , e e i B B k G k N k k B k B B k g B B k k i 7 i g g g B B k B p k B k k k v p B ",
"} } } } U G g # X X X X X X i B G } } } } } } } } } } } $.} G p i X X X i p G R } $.$.} } } } } 1.$.1.} } } } G k i # B } } } } ( } } } } $.$.} } } } ",
"Z.Z.Z.b.r.<.G i 7 X 5 X X X p G 1.b.F.b.b.b.Z.Z.b.Z.Z.Z.Z.x.1.G 2 X # # i R 1.x.b.b.b.F.b.Z.Z.Z.b.b.b.Z.Z.b.k.$.G p p } 8.b.b.Z.b.b.b.b.Z.Z.b.b.Z.k.r.",
"}.Q.~.}.Q.b.} G p p p e e e B } 8./.}./.}.~.~.}././.}.Q.~.Q.b.<.B i 2 2 k <.Z.!.Q.Q.Q.}.}.Q.}.}.Q./.}./.}.Q./.8.U k B $.b.}.}././.}./.}.}./.}./.}.~.}.",
"}.}.}.}./.Z.r.<.} } ( G k k k } b.}.}.%X}.}.}.}.}.}.}.}.~.}.~.x.<.G i i p <.Z.}.%X}.}.}.}.}.}.}.}.}.}.}.}.}.}.x.U k G } E.}.&X}.}.}.}.}.}.}.}.}.}.}.*X",
"}.}.}.}.}.Q.E.b.k.r.k.8.} k k } b.}.%X}.}.}.}.}.}.}.}.}.}.}.~.Q.b.1.R i v <.Z.}.}.}.}.}.}.}.}.}.}.}.}.}.}.%X}.x.} g G 1.Z.}.}.}.}.}.}.}.}.}.}.}.}.}.}.",
"}.}.}.}.}.}.Q.Q./.}./.b.} k g } 8.Z.~.~.}.}.}.}.}.}.}.}.}.}.~.~.E.r.} p p <.Z.!.}.&X}.}.}.}.}.}.}.}.}.E.}.}.Z.8.} i v <.Z.}.}.}.}.}.}.}.}.}.}.}.}.}.}.",
"}.}.}.}.}.}.}.}.}.&X}.F.$.k i G } 8.Z.Q.}.}.}.}.}.}.}.}.}.}.}.}.}.r./ B B } Z./.#X}.}.}.}.}.}.}.}.}.~.Q.E.b.1.} B i k } E./.}.}.}.}.}.}.}.}.}.}.}.}.}.",
"=X=X=X}.}.}.}.}.&X#X}.E.&.k 7 i v R <.Z.}.}.}.}.}.}.}.}.}.}.%X%X(.r.} v v } r.}.&X}.}.}.}.}.}.}.}.}.}.}.b.$.G p i 5 B 1.E.E.}.}.}.}.}.}.}.}.}.}.=X=X=X",
"=X=X=X}.}.}.}.}.}.}.}.b.$.B 7 # 7 v +.Z.}.*X}.}.}.}.}.}.}.}.}.}.}.r.} v k $.b./.}.}.}.}.}.}.}.}.}.}.}.].r.} k 7 5 7 B $.Z.}.}.}.}.}.}.}.}.}.}.}.=X=X=X",
"=X=X=X}.}.}.}.}.}.}.Q.Z.} B 2 X X p } r.(.}.#X}.}.}.}.}.}.}.}.}.!.r.} v G $.E./.&X*X}.}.}.}.}.}.}.}.}.E.x.} i X X # k 1.E.}.&X}.}.}.}.}.}.}.}.}.=X=X=X"
};
